<?xml version="1.0" standalone="no"?><!DOCTYPE svg PUBLIC "-//W3C//DTD SVG 1.1//EN" "http://www.w3.org/Graphics/SVG/1.1/DTD/svg11.dtd"><svg t="1595917637032" class="icon" viewBox="0 0 1185 1024" version="1.1" xmlns="http://www.w3.org/2000/svg" p-id="1191" xmlns:xlink="http://www.w3.org/1999/xlink" width="231.4453125" height="200"><defs><style type="text/css"></style></defs><path d="M986.273684 1010.526316H361.094737c-91.621053 0-167.073684-75.452632-167.073684-167.073684V177.852632C194.021053 86.231579 269.473684 10.778947 361.094737 10.778947h625.178947c91.621053 0 167.073684 75.452632 167.073684 167.073685v665.6c0 91.621053-75.452632 167.073684-167.073684 167.073684z" fill="#A3D900" p-id="1192"></path><path d="M805.726316 1013.221053H226.357895c-105.094737 0-194.021053-86.231579-194.021053-194.021053V204.8C32.336842 99.705263 118.568421 10.778947 226.357895 10.778947h579.368421c105.094737 0 194.021053 86.231579 194.021052 194.021053v482.357895c0 16.168421-10.778947 26.947368-26.947368 26.947368s-26.947368-10.778947-26.947368-26.947368V204.8c0-75.452632-61.978947-140.126316-140.126316-140.126316H226.357895c-75.452632 0-140.126316 61.978947-140.126316 140.126316v617.094737c0 75.452632 61.978947 140.126316 140.126316 140.126316h579.368421c70.063158 0 129.347368-53.894737 137.431579-121.263158 2.694737-13.473684 16.168421-24.252632 29.642105-24.252632 13.473684 2.694737 24.252632 16.168421 24.252632 29.642105-10.778947 94.315789-94.315789 167.073684-191.326316 167.073685z" fill="#333333" p-id="1193"></path><path d="M800.336842 552.421053c-8.084211 0-13.473684-2.694737-18.863158-8.084211L638.652632 404.210526l-137.431579 137.431579c-8.084211 8.084211-18.863158 10.778947-29.642106 5.389474-10.778947-5.389474-16.168421-13.473684-16.168421-24.252632V40.421053c0-16.168421 10.778947-26.947368 26.947369-26.947369s26.947368 10.778947 26.947368 26.947369V458.105263l110.484211-110.48421c10.778947-10.778947 26.947368-10.778947 37.726315 0l115.873685 115.873684V40.421053c0-16.168421 10.778947-26.947368 26.947368-26.947369s26.947368 10.778947 26.947369 26.947369v485.052631c0 10.778947-5.389474 21.557895-16.168422 24.252632-2.694737 2.694737-8.084211 2.694737-10.778947 2.694737z" fill="#333333" p-id="1194"></path></svg>